HIERARCHY
ROOT hip
{
	OFFSET 0.000000 0.000000 0.000000 
	CHANNELS 6 Xposition Yposition Zposition Xrotation Zrotation Yrotation
	JOINT abdomen
	{
		OFFSET 0.000000 3.402643 0.000000 
		CHANNELS 3 Xrotation Zrotation Yrotation
		JOINT chest
		{
			OFFSET 0.000000 8.438565 -0.680529 
			CHANNELS 3 Xrotation Zrotation Yrotation
			JOINT neck
			{
				OFFSET 0.000000 10.207942 -0.272212 
				CHANNELS 3 Xrotation Zrotation Yrotation
				JOINT head
				{
					OFFSET 0.000000 3.130431 0.000000 
					CHANNELS 3 Xrotation Zrotation Yrotation
					End Site
					{
						OFFSET 0.000000 3.130435 0.000000 
					}
				}
			}
			JOINT lCollar
			{
				OFFSET 3.470700 6.669187 -0.816635 
				CHANNELS 3 Yrotation Zrotation Xrotation
				JOINT lShldr
				{
					OFFSET 3.198488 0.000000 0.000000 
					CHANNELS 3 Zrotation Yrotation Xrotation
					JOINT lForeArm
					{
						OFFSET 10.139888 0.000000 0.000000 
						CHANNELS 3 Yrotation Zrotation Xrotation
						JOINT lHand
						{
							OFFSET 8.370511 0.000000 0.000000 
							CHANNELS 3 Zrotation Yrotation Xrotation
							End Site
							{
								OFFSET 4.083176 0.000000 0.000000 
							}
						}
					}
				}
			}
			JOINT rCollar
			{
				OFFSET -3.470700 6.669187 -0.816635 
				CHANNELS 3 Yrotation Zrotation Xrotation
				JOINT rShldr
				{
					OFFSET -3.198488 0.000000 0.000000 
					CHANNELS 3 Zrotation Yrotation Xrotation
					JOINT rForeArm
					{
						OFFSET -10.139888 0.000000 0.000000 
						CHANNELS 3 Yrotation Zrotation Xrotation
						JOINT rHand
						{
							OFFSET -8.370511 0.000000 0.000000 
							CHANNELS 3 Zrotation Yrotation Xrotation
							End Site
							{
								OFFSET -4.083176 0.000000 0.000000 
							}
						}
					}
				}
			}
		}
	}
	JOINT lThigh
	{
		OFFSET 5.308129 -1.633274 1.361059 
		CHANNELS 3 Xrotation Zrotation Yrotation
		JOINT lShin
		{
			OFFSET -2.041588 -20.007561 0.000000 
			CHANNELS 3 Xrotation Zrotation Yrotation
			JOINT lFoot
			{
				OFFSET 0.000000 -19.190928 -1.224953 
				CHANNELS 3 Xrotation Yrotation Zrotation
				End Site
				{
					OFFSET 0.000000 -2.449906 4.627600 
				}
			}
		}
	}
	JOINT rThigh
	{
		OFFSET -5.308129 -1.633274 1.361059 
		CHANNELS 3 Xrotation Zrotation Yrotation
		JOINT rShin
		{
			OFFSET 2.041588 -20.007561 0.000000 
			CHANNELS 3 Xrotation Zrotation Yrotation
			JOINT rFoot
			{
				OFFSET 0.000000 -19.190928 -1.224953 
				CHANNELS 3 Xrotation Yrotation Zrotation
				End Site
				{
					OFFSET 0.000000 -2.449906 4.627600 
				}
			}
		}
	}
}
MOTION
Frames: 11
Frame Time: 0.016667
-35.621567 28.663609 7.645994 -19.619141 13.212892 30.791019 77.252480 0.773000 -6.451100 -36.796871 0.000000 0.000000 -27.732630 10.789625 -12.247114 6.074219 -1.259766 0.214844 -7.713498 -0.206835 -0.018100 -67.955879 -1.091052 -1.914160 -92.402588 -21.420668 -1.131428 10.567554 -18.136530 -2.509695 7.703730 0.197082 -0.017631 38.415878 -4.212200 -22.475002 72.916603 1.653261 0.783018 -21.077106 -3.910820 1.073886 -53.163605 26.230427 0.572024 84.922546 5.860370 -4.598453 1.880026 -3.437740 -2.703059 -55.026386 -17.049980 -0.887386 84.959984 -3.447179 4.539968 3.225934 3.243915 4.649252 
-35.551826 28.719067 7.690581 -19.257814 13.232422 31.171877 77.449287 0.625643 -7.041006 -36.796871 0.000000 0.000000 -30.863911 9.743045 -13.844254 6.074219 -1.259766 0.214844 -7.713498 -0.206835 -0.018100 -69.069641 -2.308096 -1.430280 -97.978310 -20.886969 -2.222532 11.921470 -19.147764 -1.723392 7.703730 0.197082 -0.017631 38.465759 -3.937022 -22.086042 69.369560 2.086035 1.562498 -21.046381 -4.457180 2.041027 -54.789577 26.042484 -0.069540 84.881538 6.260370 -5.207145 8.944488 -4.843513 -4.002219 -53.101192 -17.166725 -1.041485 83.961655 -3.495763 6.097456 3.994255 5.636537 5.665131 
-35.538101 28.757938 7.732316 -18.974609 12.724610 31.535353 77.277748 0.495799 -7.514091 -36.796871 0.000000 0.000000 -36.307228 8.404292 -14.887463 6.074219 -1.259766 0.214844 -7.713498 -0.206835 -0.018100 -68.981125 -2.724234 -0.443604 -102.189941 -21.719885 -1.397644 16.292358 -21.120989 0.894163 7.703730 0.197082 -0.017631 38.987850 -4.936339 -22.421261 70.457932 1.826488 -0.655165 -18.115715 -5.455982 -0.930801 -56.445969 25.533087 -0.642789 84.578293 6.504276 -5.674452 14.280320 -5.812493 -4.468822 -51.676960 -17.557964 -1.437515 82.760292 -3.280827 6.841672 4.061351 6.683867 4.679290 
-35.581554 28.816246 7.724876 -19.003904 11.943359 31.476633 76.776642 0.485504 -7.872161 -36.796871 0.000000 0.000000 -41.819294 6.576552 -14.025393 6.074219 -1.259766 0.214844 -7.713498 -0.206835 -0.018100 -67.848038 -1.506289 0.479628 -104.237534 -23.681965 0.532004 22.408705 -24.642155 3.766627 7.703730 0.197082 -0.017631 39.641670 -5.745520 -22.898199 72.860992 1.275096 -2.605347 -15.642699 -5.454324 -3.543350 -57.519318 25.468889 -0.815357 84.202957 6.395414 -5.887379 16.332621 -6.366216 -5.066312 -52.049873 -17.656118 -1.598754 82.442825 -2.987250 6.498386 3.163876 6.109766 3.223257 
-35.512379 28.830532 7.665994 -19.306639 11.591798 30.861340 76.770180 0.904455 -7.702748 -36.796871 0.000000 0.000000 -46.605995 4.902020 -12.329614 6.074219 -1.259766 0.214844 -7.713498 -0.206835 -0.018100 -66.225525 0.956437 1.228240 -102.532440 -26.500206 2.844563 26.990421 -28.511221 5.151052 7.703730 0.197082 -0.017631 39.712864 -5.528218 -22.939381 73.880096 1.032796 -1.132465 -17.135284 -4.354970 -1.419363 -57.197563 26.001524 -0.511942 84.418053 6.181374 -5.645116 13.563660 -5.815313 -5.673262 -53.015343 -17.147818 -1.365736 82.625763 -3.046874 6.241225 4.612368 5.824392 3.827143 
-35.376900 28.757938 7.620272 -19.775391 11.416016 30.216782 77.402695 1.925997 -7.403105 -36.796871 0.000000 0.000000 -51.471046 4.049436 -10.360540 6.074219 -1.259766 0.214844 -7.713498 -0.206835 -0.018100 -63.801098 3.494440 1.503797 -97.709618 -29.316809 3.537924 26.602627 -28.315838 3.591342 7.703730 0.197082 -0.017631 39.178097 -5.360075 -22.985838 77.012703 0.890111 0.620079 -21.121193 -3.188918 1.004580 -55.860546 26.470514 -0.104816 85.098175 6.045764 -5.178580 5.890688 -4.713720 -5.180878 -53.874466 -16.561836 -1.034032 82.865578 -3.270810 6.381174 6.650476 6.192181 5.111805 
-35.260300 28.596722 7.613984 -19.941406 11.367187 29.775391 78.002052 2.468143 -7.310462 -36.796871 0.000000 0.000000 -55.090477 3.825016 -8.691101 6.074219 -1.259766 0.214844 -7.713498 -0.206835 -0.018100 -62.521194 6.515488 0.333547 -94.263474 -30.070560 -1.115704 14.998851 -23.659990 -2.184202 7.703730 0.197082 -0.017631 39.060112 -5.647264 -23.264914 82.004539 0.490441 1.251722 -25.308092 -2.170032 1.753851 -54.079742 26.707962 0.534998 85.733566 5.770700 -5.022181 -3.093529 -3.924064 -2.665832 -54.481152 -16.269537 -0.842215 83.300560 -3.446303 6.583677 7.297433 6.580827 5.502471 
-35.159100 28.499538 7.612851 -19.990234 11.523438 29.728514 78.715721 2.767867 -7.042572 -36.796871 0.000000 0.000000 -56.902443 4.177788 -8.181904 6.074219 -1.259766 0.214844 -7.713498 -0.206835 -0.018100 -62.908268 9.137299 -1.338809 -90.252441 -29.322237 -5.365709 3.075522 -18.308939 -8.780472 7.703730 0.197082 -0.017631 38.902267 -5.916190 -23.503408 85.449982 0.108774 2.392770 -29.826347 -1.128079 3.138238 -53.621284 26.825409 0.690669 86.064690 5.684180 -4.910570 -5.001280 -3.824494 -0.902002 -54.336964 -16.413576 -1.008323 83.680649 -3.232315 6.590180 6.747132 6.552135 5.208693 
-35.111076 28.561848 7.606545 -20.126953 11.582032 29.687502 78.990784 3.126580 -6.768014 -36.796871 0.000000 0.000000 -57.050018 4.776468 -8.074945 6.074219 -1.259766 0.214844 -7.713498 -0.206835 -0.018100 -62.713581 10.211814 -0.403643 -83.503006 -30.894203 -0.632600 4.523516 -19.925678 -6.841945 7.703730 0.197082 -0.017631 38.880329 -6.444522 -23.435637 87.780998 0.178706 3.658774 -33.567871 0.038062 4.551904 -54.897911 26.765455 0.088908 86.036392 6.153185 -4.853648 0.553814 -3.970542 -2.808070 -54.039341 -16.629908 -1.294932 83.665108 -2.919202 6.561317 6.404894 6.462488 4.510795 
-35.124802 28.735069 7.585961 -20.000002 11.445313 29.394529 78.589813 2.889386 -7.292663 -36.796871 0.000000 0.000000 -55.652905 5.823672 -8.006711 6.074219 -1.259766 0.214844 -7.713498 -0.206835 -0.018100 -62.382366 11.097017 0.711305 -80.473534 -32.632153 3.102767 9.051533 -22.798914 -4.909069 7.703730 0.197082 -0.017631 39.499626 -7.079027 -22.973434 89.547890 0.787300 4.106779 -36.700035 0.861799 4.819935 -56.241810 26.714888 -0.407127 85.709770 6.425771 -5.137814 7.621414 -4.695970 -4.385013 -54.021847 -16.630486 -1.258636 83.288124 -2.939208 6.690611 6.901723 6.696863 4.283953 
-35.157948 28.897427 7.573399 -19.951172 11.132813 29.374998 77.929337 2.490057 -8.178108 -36.796871 0.000000 0.000000 -53.163521 7.057415 -8.735751 6.074219 -1.259766 0.214844 -7.713498 -0.206835 -0.018100 -63.640560 12.554681 0.121266 -82.552299 -32.364582 2.004411 7.783704 -21.685518 -4.566646 7.703730 0.197082 -0.017631 41.038254 -7.027847 -22.761311 89.985481 0.724047 4.181163 -36.801914 0.701917 4.961400 -57.539127 26.675152 -0.773640 85.273590 6.543668 -5.383626 13.049324 -5.536888 -5.067000 -54.151493 -16.696661 -1.224327 82.831657 -2.988294 6.822627 7.645896 6.900703 4.608844 
